<svg width="18" height="13" viewBox="0 0 18 13" fill="none" xmlns="http://www.w3.org/2000/svg">
<path d="M6.42098 5.35304L9.00004 0.930834L1.96232 0.00423585C1.7691 -0.0210588 1.58179 0.080992 1.49742 0.262706L0.0494013 3.25096C-0.0806767 3.52135 0.0573888 3.84117 0.331636 3.91967L5.87507 5.56324C6.09754 5.62343 6.31129 5.5362 6.42098 5.35304ZM17.9522 3.25096L16.5041 0.262125C16.4197 0.0804105 16.2296 -0.0215821 16.0363 0.00385787L9.00004 0.930834L11.5802 5.35304C11.6857 5.53475 11.9003 5.62229 12.1008 5.56414L17.6667 3.92116C17.9438 3.83826 18.0788 3.51845 17.9522 3.25096ZM11.9757 6.5509C11.4975 6.5509 11.0509 6.29071 10.8085 5.87521L9.00004 2.79159L7.19441 5.87347C6.94973 6.29214 6.50535 6.5538 6.02723 6.5538C5.90066 6.5538 5.7741 6.53575 5.65457 6.49964L1.80004 5.36467V10.4847C1.80004 10.9112 2.08126 11.2798 2.48207 11.381L8.55988 12.9458C8.84816 13.0181 9.14713 13.0181 9.43176 12.9458L15.518 11.381C15.8935 11.3016 16.2 10.9324 16.2 10.5108V5.36467L12.3469 6.49566C12.2288 6.53054 12.1022 6.5509 11.9757 6.5509Z" fill="#1B1A1A"/>
</svg>
